<svg>
	<symbol id="calculator" viewBox="0 0 256 256" xmlns="http://www.w3.org/2000/svg">
		<rect x="80" y="64" width="96" height="48" fill="none" stroke="currentColor"
			stroke-linecap="round" stroke-linejoin="round" stroke-width="16"></rect>
		<rect x="32" y="48" width="192" height="160" rx="8" transform="translate(256) rotate(90)"
			fill="none" stroke="currentColor" stroke-linecap="round" stroke-linejoin="round"
			stroke-width="16"></rect>
		<circle cx="88" cy="148" r="12"></circle>
		<circle cx="128" cy="148" r="12"></circle>
		<circle cx="168" cy="148" r="12"></circle>
		<circle cx="88" cy="188" r="12"></circle>
		<circle cx="128" cy="188" r="12"></circle>
		<circle cx="168" cy="188" r="12"></circle>
	</symbol>
	<symbol id="arrow-right-light" xmlns="http://www.w3.org/2000/svg" viewBox="0 0 256 256">
		<line x1="40" y1="128" x2="216" y2="128" fill="none" stroke="currentColor"
			stroke-linecap="round" stroke-linejoin="round" stroke-width="12"></line>
		<polyline points="144 56 216 128 144 200" fill="none" stroke="currentColor"
			stroke-linecap="round" stroke-linejoin="round" stroke-width="12"></polyline>
	</symbol>
	<symbol id="paper-plane-tilt" xmlns="http://www.w3.org/2000/svg" viewBox="0 0 256 256">
		<path
			d="M210.3,35.9,23.9,88.4a8,8,0,0,0-1.2,15l85.6,40.5a7.8,7.8,0,0,1,3.8,3.8l40.5,85.6a8,8,0,0,0,15-1.2L220.1,45.7A7.9,7.9,0,0,0,210.3,35.9Z"
			fill="none" stroke="currentColor" stroke-linecap="round" stroke-linejoin="round"
			stroke-width="16"></path>
		<line x1="110.9" y1="145.1" x2="156.1" y2="99.9" fill="none" stroke="currentColor"
			stroke-linecap="round" stroke-linejoin="round" stroke-width="16"></line>
	</symbol>
	<symbol id="thumbs-up-light" xmlns="http://www.w3.org/2000/svg" viewBox="0 0 256 256">
		<rect width="256" height="256" fill="none"></rect>
		<path d="M32,104H80a0,0,0,0,1,0,0V208a0,0,0,0,1,0,0H32a8,8,0,0,1-8-8V112A8,8,0,0,1,32,104Z"
			fill="none" stroke="currentColor" stroke-linecap="round" stroke-linejoin="round"
			stroke-width="12"></path>
		<path
			d="M80,104l40-80a32,32,0,0,1,32,32V80h61.9a15.9,15.9,0,0,1,15.8,18l-12,96a16,16,0,0,1-15.8,14H80"
			fill="none" stroke="currentColor" stroke-linecap="round" stroke-linejoin="round"
			stroke-width="12"></path>
	</symbol>
	<symbol id="microphone" xmlns="http://www.w3.org/2000/svg" viewBox="0 0 256 256">
		<rect x="88" y="24" width="80" height="144" rx="40" fill="none" stroke="currentColor"
			stroke-linecap="round" stroke-linejoin="round" stroke-width="16"></rect>
		<line x1="128" y1="200" x2="128" y2="232" fill="none" stroke="currentColor"
			stroke-linecap="round" stroke-linejoin="round" stroke-width="16"></line>
		<path d="M199.6,136a72.1,72.1,0,0,1-143.2,0" fill="none" stroke="currentColor"
			stroke-linecap="round" stroke-linejoin="round" stroke-width="16"></path>
	</symbol>
	<symbol id="calendar-blank" xmlns="http://www.w3.org/2000/svg" viewBox="0 0 256 256">
		<rect x="40" y="40" width="176" height="176" rx="8" fill="none" stroke="currentColor"
			stroke-linecap="round" stroke-linejoin="round" stroke-width="16"></rect>
		<line x1="176" y1="24" x2="176" y2="56" fill="none" stroke="currentColor"
			stroke-linecap="round" stroke-linejoin="round" stroke-width="16"></line>
		<line x1="80" y1="24" x2="80" y2="56" fill="none" stroke="currentColor"
			stroke-linecap="round" stroke-linejoin="round" stroke-width="16"></line>
		<line x1="40" y1="88" x2="216" y2="88" fill="none" stroke="currentColor"
			stroke-linecap="round" stroke-linejoin="round" stroke-width="16"></line>
	</symbol>
	<symbol id="phone" xmlns="http://www.w3.org/2000/svg" viewBox="0 0 256 256">
		<path
			d="M92.5,124.8a83.6,83.6,0,0,0,39,38.9,8,8,0,0,0,7.9-.6l25-16.7a7.9,7.9,0,0,1,7.6-.7l46.8,20.1a7.9,7.9,0,0,1,4.8,8.3A48,48,0,0,1,176,216,136,136,0,0,1,40,80,48,48,0,0,1,81.9,32.4a7.9,7.9,0,0,1,8.3,4.8l20.1,46.9a8,8,0,0,1-.6,7.5L93,117A8,8,0,0,0,92.5,124.8Z"
			fill="none" stroke="currentColor" stroke-linecap="round" stroke-linejoin="round"
			stroke-width="16"></path>
	</symbol>
	<symbol id="map-pin" xmlns="http://www.w3.org/2000/svg" viewBox="0 0 256 256">
		<circle cx="128" cy="104" r="32" fill="none" stroke="currentColor" stroke-linecap="round"
			stroke-linejoin="round" stroke-width="16"></circle>
		<path d="M208,104c0,72-80,128-80,128S48,176,48,104a80,80,0,0,1,160,0Z" fill="none"
			stroke="currentColor" stroke-linecap="round" stroke-linejoin="round" stroke-width="16"></path>
	</symbol>
	<symbol id="cloud" xmlns="http://www.w3.org/2000/svg" viewBox="0 0 256 256">
		<path d="M80,128a80,80,0,1,1,80,80H72A56,56,0,0,1,72,96a57.5,57.5,0,0,1,13.9,1.7"
			fill="none" stroke="currentColor" stroke-linecap="round" stroke-linejoin="round"
			stroke-width="16"></path>
	</symbol>
	<symbol id="whatsapp" xmlns="http://www.w3.org/2000/svg" viewBox="0 0 256 256">
		<path d="M45.4,177A95.9,95.9,0,1,1,79,210.6h0L45.8,220a7.9,7.9,0,0,1-9.8-9.8L45.4,177Z"
			fill="none" stroke="currentColor" stroke-linecap="round" stroke-linejoin="round"
			stroke-width="16"></path>
		<path
			d="M152.1,184A79.9,79.9,0,0,1,72,103.9,28,28,0,0,1,100,76h0a6.8,6.8,0,0,1,6,3.5l11.7,20.4a8.1,8.1,0,0,1-.1,8.1l-9.4,15.7h0a48,48,0,0,0,24.1,24.1h0l15.7-9.4a8.1,8.1,0,0,1,8.1-.1L176.5,150a6.8,6.8,0,0,1,3.5,6h0A28.1,28.1,0,0,1,152.1,184Z"
			fill="none" stroke="currentColor" stroke-linecap="round" stroke-linejoin="round"
			stroke-width="16"></path>
	</symbol>
	<symbol id="telegram" xmlns="http://www.w3.org/2000/svg" viewBox="0 0 256 256">
		<path
			d="M88,134.9,177.9,214a8,8,0,0,0,13.1-4.2L228.6,45.6a8,8,0,0,0-10.7-9.2L33.3,108.9c-7.4,2.9-6.4,13.7,1.4,15.3Z"
			fill="none" stroke="currentColor" stroke-linecap="round" stroke-linejoin="round"
			stroke-width="16"></path>
		<line x1="88" y1="134.9" x2="224.1" y2="36.6" fill="none" stroke="currentColor"
			stroke-linecap="round" stroke-linejoin="round" stroke-width="16"></line>
		<path d="M132.9,174.4l-31.2,31.2A8,8,0,0,1,88,200V134.9" fill="none" stroke="currentColor"
			stroke-linecap="round" stroke-linejoin="round" stroke-width="16"></path>
	</symbol>
	<symbol id="envelope-open" xmlns="http://www.w3.org/2000/svg" viewBox="0 0 256 256">
		<path d="M32,96V200a8,8,0,0,0,8,8H216a8,8,0,0,0,8-8V96L128,32Z" fill="none"
			stroke="currentColor" stroke-linecap="round" stroke-linejoin="round" stroke-width="16"></path>
		<line x1="110.5" y1="152" x2="34.5" y2="205.7" fill="none" stroke="currentColor"
			stroke-linecap="round" stroke-linejoin="round" stroke-width="16"></line>
		<line x1="221.5" y1="205.7" x2="145.5" y2="152" fill="none" stroke="currentColor"
			stroke-linecap="round" stroke-linejoin="round" stroke-width="16"></line>
		<polyline points="224 96 145.5 152 110.5 152 32 96" fill="none" stroke="currentColor"
			stroke-linecap="round" stroke-linejoin="round" stroke-width="16"></polyline>
	</symbol>
	<symbol id="user-circle" xmlns="http://www.w3.org/2000/svg" viewBox="0 0 256 256">
		<circle cx="128" cy="128" r="96" fill="none" stroke="currentColor" stroke-linecap="round"
			stroke-linejoin="round" stroke-width="16"></circle>
		<circle cx="128" cy="120" r="40" fill="none" stroke="currentColor" stroke-linecap="round"
			stroke-linejoin="round" stroke-width="16"></circle>
		<path d="M63.8,199.4a72,72,0,0,1,128.4,0" fill="none" stroke="currentColor"
			stroke-linecap="round" stroke-linejoin="round" stroke-width="16"></path>
	</symbol>
	<symbol id="shopping-cart" xmlns="http://www.w3.org/2000/svg" viewBox="0 0 256 256">
		<path d="M184,184H69.8L41.9,30.6A8,8,0,0,0,34.1,24H16" fill="none" stroke="currentColor"
			stroke-linecap="round" stroke-linejoin="round" stroke-width="16"></path>
		<circle cx="80" cy="204" r="20" fill="none" stroke="currentColor" stroke-linecap="round"
			stroke-linejoin="round" stroke-width="16"></circle>
		<circle cx="184" cy="204" r="20" fill="none" stroke="currentColor" stroke-linecap="round"
			stroke-linejoin="round" stroke-width="16"></circle>
		<path d="M62.5,144H188.1a15.9,15.9,0,0,0,15.7-13.1L216,64H48" fill="none"
			stroke="currentColor" stroke-linecap="round" stroke-linejoin="round" stroke-width="16"></path>
	</symbol>

	<symbol id="close" xmlns="http://www.w3.org/2000/svg" viewBox="0 0 256 256">
		<line x1="200" y1="56" x2="56" y2="200" stroke-linecap="round" stroke-linejoin="round"
			stroke-width="16"></line>
		<line x1="200" y1="200" x2="56" y2="56" stroke-linecap="round" stroke-linejoin="round"
			stroke-width="16"></line>
	</symbol>
	<symbol id="microsoft-word-logo-light" xmlns="http://www.w3.org/2000/svg" viewBox="0 0 256 256">
		<line x1="152" y1="96" x2="208" y2="96" fill="none" stroke="currentColor"
			stroke-linecap="round" stroke-linejoin="round" stroke-width="12"></line>
		<line x1="152" y1="160" x2="208" y2="160" fill="none" stroke="currentColor"
			stroke-linecap="round" stroke-linejoin="round" stroke-width="12"></line>
		<path d="M64,72V40a8,8,0,0,1,8-8H200a8,8,0,0,1,8,8V216a8,8,0,0,1-8,8H72a8,8,0,0,1-8-8V184"
			fill="none" stroke="currentColor" stroke-linecap="round" stroke-linejoin="round"
			stroke-width="12"></path>
		<polyline points="64 104 76 152 92 116 108 152 120 104" fill="none" stroke="currentColor"
			stroke-linecap="round" stroke-linejoin="round" stroke-width="12"></polyline>
		<rect x="32" y="72" width="120" height="112" rx="8" fill="none" stroke="currentColor"
			stroke-linecap="round" stroke-linejoin="round" stroke-width="12"></rect>
	</symbol>
	<symbol id="graduation-cap-light" xmlns="http://www.w3.org/2000/svg" viewBox="0 0 256 256">
		<polygon points="8 96 128 32 248 96 128 160 8 96" fill="none" stroke="currentColor"
			stroke-linecap="round" stroke-linejoin="round" stroke-width="12"></polygon>
		<polyline points="188 240 188 128 128 96" fill="none" stroke="currentColor"
			stroke-linecap="round" stroke-linejoin="round" stroke-width="12"></polyline>
		<path
			d="M220,110.9v54.6a7.8,7.8,0,0,1-1.6,4.7c-6.7,9-35.1,41.8-90.4,41.8s-83.7-32.8-90.4-41.8a7.8,7.8,0,0,1-1.6-4.7V110.9"
			fill="none" stroke="currentColor" stroke-linecap="round" stroke-linejoin="round"
			stroke-width="12"></path>
	</symbol>
	<symbol id="plus" xmlns="http://www.w3.org/2000/svg" viewBox="0 0 256 256">
		<line x1="40" y1="128" x2="216" y2="128" fill="none" stroke="currentColor"
			stroke-linecap="round" stroke-linejoin="round" stroke-width="16"></line>
		<line x1="128" y1="40" x2="128" y2="216" fill="none" stroke="currentColor"
			stroke-linecap="round" stroke-linejoin="round" stroke-width="16"></line>
	</symbol>
	<symbol id="person-light" xmlns="http://www.w3.org/2000/svg" viewBox="0 0 256 256">
		<circle cx="127.9" cy="44" r="28" fill="none" stroke="currentColor" stroke-linecap="round"
			stroke-linejoin="round" stroke-width="12"></circle>
		<path
			d="M153.9,134.7l34.8,27a12,12,0,0,0,16.9-16.9L166,93.9A19.9,19.9,0,0,0,151.9,88h-48a20.3,20.3,0,0,0-14.2,5.9L50.1,144.8a12,12,0,0,0,17,16.9l34.8-27L74.1,222.3a12,12,0,0,0,21.8,10.2l32-50.4h0l32,50.4a12,12,0,1,0,21.7-10.2Z"
			fill="none" stroke="currentColor" stroke-linecap="round" stroke-linejoin="round"
			stroke-width="12"></path>
	</symbol>
	<symbol id="cpu-light" xmlns="http://www.w3.org/2000/svg" viewBox="0 0 256 256">
		<rect x="100" y="100" width="56" height="56" fill="none" stroke="currentColor"
			stroke-linecap="round" stroke-linejoin="round" stroke-width="12"></rect>
		<rect x="48" y="48" width="160" height="160" rx="8" fill="none" stroke="currentColor"
			stroke-linecap="round" stroke-linejoin="round" stroke-width="12"></rect>
		<line x1="208" y1="104" x2="232" y2="104" fill="none" stroke="currentColor"
			stroke-linecap="round" stroke-linejoin="round" stroke-width="12"></line>
		<line x1="208" y1="152" x2="232" y2="152" fill="none" stroke="currentColor"
			stroke-linecap="round" stroke-linejoin="round" stroke-width="12"></line>
		<line x1="24" y1="104" x2="48" y2="104" fill="none" stroke="currentColor"
			stroke-linecap="round" stroke-linejoin="round" stroke-width="12"></line>
		<line x1="24" y1="152" x2="48" y2="152" fill="none" stroke="currentColor"
			stroke-linecap="round" stroke-linejoin="round" stroke-width="12"></line>
		<line x1="152" y1="208" x2="152" y2="232" fill="none" stroke="currentColor"
			stroke-linecap="round" stroke-linejoin="round" stroke-width="12"></line>
		<line x1="104" y1="208" x2="104" y2="232" fill="none" stroke="currentColor"
			stroke-linecap="round" stroke-linejoin="round" stroke-width="12"></line>
		<line x1="152" y1="24" x2="152" y2="48" fill="none" stroke="currentColor"
			stroke-linecap="round" stroke-linejoin="round" stroke-width="12"></line>
		<line x1="104" y1="24" x2="104" y2="48" fill="none" stroke="currentColor"
			stroke-linecap="round" stroke-linejoin="round" stroke-width="12"></line>
	</symbol>
	<symbol id="google-chrome-logo" xmlns="http://www.w3.org/2000/svg" viewBox="0 0 256 256">
		<circle cx="128" cy="128" r="96" fill="none" stroke="currentColor" stroke-linecap="round"
			stroke-linejoin="round" stroke-width="16"></circle>
		<circle cx="128" cy="128" r="36" fill="none" stroke="currentColor" stroke-linecap="round"
			stroke-linejoin="round" stroke-width="16"></circle>
		<line x1="128" y1="92" x2="217" y2="92" fill="none" stroke="currentColor"
			stroke-linecap="round" stroke-linejoin="round" stroke-width="16"></line>
		<line x1="96.8" y1="146" x2="52.3" y2="68.9" fill="none" stroke="currentColor"
			stroke-linecap="round" stroke-linejoin="round" stroke-width="16"></line>
		<line x1="159.2" y1="146" x2="114.7" y2="223.1" fill="none" stroke="currentColor"
			stroke-linecap="round" stroke-linejoin="round" stroke-width="16"></line>
	</symbol>
	<symbol id="browsers" xmlns="http://www.w3.org/2000/svg" viewBox="0 0 256 256">
		<rect x="32" y="80" width="160" height="128" rx="8" fill="none" stroke="currentColor"
			stroke-linecap="round" stroke-linejoin="round" stroke-width="16"></rect>
		<path d="M64,80V56a8,8,0,0,1,8-8H216a8,8,0,0,1,8,8V168a8,8,0,0,1-8,8H192" fill="none"
			stroke="currentColor" stroke-linecap="round" stroke-linejoin="round" stroke-width="16"></path>
		<line x1="32" y1="112" x2="192" y2="112" fill="none" stroke="currentColor"
			stroke-linecap="round" stroke-linejoin="round" stroke-width="16"></line>
	</symbol>
	<symbol id="handshake" xmlns="http://www.w3.org/2000/svg" viewBox="0 0 256 256">
		<path
			d="M240.7,121.8,216,134.1,184,72.9l25-12.5a7.9,7.9,0,0,1,10.6,3.4l24.6,47.1A8,8,0,0,1,240.7,121.8Z"
			fill="none" stroke="currentColor" stroke-linecap="round" stroke-linejoin="round"
			stroke-width="16"></path>
		<path d="M40,133.1,15.3,120.7a7.9,7.9,0,0,1-3.5-10.8L36.4,62.8A8,8,0,0,1,47,59.3L72,71.8Z"
			fill="none" stroke="currentColor" stroke-linecap="round" stroke-linejoin="round"
			stroke-width="16"></path>
		<path
			d="M216,134.1l-16,18.8-36.8,36.8a8.5,8.5,0,0,1-7.6,2.1l-58-14.5a8,8,0,0,1-2.9-1.5L40,133.1"
			fill="none" stroke="currentColor" stroke-linecap="round" stroke-linejoin="round"
			stroke-width="16"></path>
		<path
			d="M200,152.9l-44-32-12.8,9.6a32.1,32.1,0,0,1-38.4,0l-5.4-4.1a8.1,8.1,0,0,1-.9-12.1l39.2-39.1a7.9,7.9,0,0,1,5.6-2.3H184"
			fill="none" stroke="currentColor" stroke-linecap="round" stroke-linejoin="round"
			stroke-width="16"></path>
		<path d="M72.6,71.8l51.3-15a8,8,0,0,1,5.5.4L164,72.9" fill="none" stroke="currentColor"
			stroke-linecap="round" stroke-linejoin="round" stroke-width="16"></path>
		<path d="M112,212.9l-30.1-7.6a7.4,7.4,0,0,1-3.3-1.7L56,184" fill="none"
			stroke="currentColor" stroke-linecap="round" stroke-linejoin="round" stroke-width="16"></path>
	</symbol>
	<symbol id="tag" xmlns="http://www.w3.org/2000/svg" viewBox="0 0 256 256">
		<path
			d="M122.7,25.9,42,42,25.9,122.7a8,8,0,0,0,2.2,7.2L132.5,234.3a7.9,7.9,0,0,0,11.3,0l90.5-90.5a7.9,7.9,0,0,0,0-11.3L129.9,28.1A8,8,0,0,0,122.7,25.9Z"
			fill="none" stroke="currentColor" stroke-linecap="round" stroke-linejoin="round"
			stroke-width="16"></path>
		<circle cx="84" cy="84" r="12" fill="currentColor"></circle>
	</symbol>
	<symbol id="question" xmlns="http://www.w3.org/2000/svg" viewBox="0 0 256 256">
		<circle cx="128" cy="128" r="96" fill="none" stroke="currentColor" stroke-linecap="round"
			stroke-linejoin="round" stroke-width="16"></circle>
		<circle cx="128" cy="180" r="12" fill="currentColor"></circle>
		<path d="M128,144v-8a28,28,0,1,0-28-28" fill="none" stroke="currentColor"
			stroke-linecap="round" stroke-linejoin="round" stroke-width="16"></path>
	</symbol>
	<symbol id="newspaper" xmlns="http://www.w3.org/2000/svg" viewBox="0 0 256 256">
		<line x1="96" y1="112" x2="176" y2="112" fill="none" stroke="currentColor"
			stroke-linecap="round" stroke-linejoin="round" stroke-width="16"></line>
		<line x1="96" y1="144" x2="176" y2="144" fill="none" stroke="currentColor"
			stroke-linecap="round" stroke-linejoin="round" stroke-width="16"></line>
		<path
			d="M32,200a16,16,0,0,0,16-16V64a8,8,0,0,1,8-8H216a8,8,0,0,1,8,8V184a16,16,0,0,1-16,16Z"
			fill="none" stroke="currentColor" stroke-linecap="round" stroke-linejoin="round"
			stroke-width="16"></path>
		<path d="M32,200a16,16,0,0,1-16-16h0V88" fill="none" stroke="currentColor"
			stroke-linecap="round" stroke-linejoin="round" stroke-width="16"></path>
	</symbol>
	<symbol id="address-book" xmlns="http://www.w3.org/2000/svg" viewBox="0 0 256 256">
		<circle cx="136" cy="112" r="32" fill="none" stroke="currentColor" stroke-linecap="round"
			stroke-linejoin="round" stroke-width="16"></circle>
		<line x1="32" y1="108" x2="56" y2="108" fill="none" stroke="currentColor"
			stroke-linecap="round" stroke-linejoin="round" stroke-width="16"></line>
		<line x1="32" y1="68" x2="56" y2="68" fill="none" stroke="currentColor"
			stroke-linecap="round" stroke-linejoin="round" stroke-width="16"></line>
		<line x1="32" y1="148" x2="56" y2="148" fill="none" stroke="currentColor"
			stroke-linecap="round" stroke-linejoin="round" stroke-width="16"></line>
		<line x1="32" y1="188" x2="56" y2="188" fill="none" stroke="currentColor"
			stroke-linecap="round" stroke-linejoin="round" stroke-width="16"></line>
		<path d="M88,168a60,60,0,0,1,96,0" fill="none" stroke="currentColor" stroke-linecap="round"
			stroke-linejoin="round" stroke-width="16"></path>
		<rect x="40" y="48" width="192" height="160" rx="8" transform="translate(264 -8) rotate(90)"
			fill="none" stroke="currentColor" stroke-linecap="round" stroke-linejoin="round"
			stroke-width="16"></rect>
	</symbol>
	<symbol id="plugs" xmlns="http://www.w3.org/2000/svg" viewBox="0 0 256 256">
		<path d="M132,180l-31,31a24,24,0,0,1-34,0L45,189a24,24,0,0,1,0-34l31-31" fill="none"
			stroke="currentColor" stroke-linecap="round" stroke-linejoin="round" stroke-width="16"></path>
		<line x1="56" y1="200" x2="24" y2="232" fill="none" stroke="currentColor"
			stroke-linecap="round" stroke-linejoin="round" stroke-width="16"></line>
		<line x1="232" y1="24" x2="200" y2="56" fill="none" stroke="currentColor"
			stroke-linecap="round" stroke-linejoin="round" stroke-width="16"></line>
		<line x1="144" y1="144" x2="120" y2="168" fill="none" stroke="currentColor"
			stroke-linecap="round" stroke-linejoin="round" stroke-width="16"></line>
		<line x1="144" y1="144" x2="120" y2="168" fill="#231f20"></line>
		<line x1="112" y1="112" x2="88" y2="136" fill="none" stroke="currentColor"
			stroke-linecap="round" stroke-linejoin="round" stroke-width="16"></line>
		<line x1="112" y1="112" x2="88" y2="136" fill="#231f20"></line>
		<path d="M180,132l31-31a24,24,0,0,0,0-34L189,45a24,24,0,0,0-34,0L124,76" fill="none"
			stroke="currentColor" stroke-linecap="round" stroke-linejoin="round" stroke-width="16"></path>
		<line x1="116" y1="68" x2="188" y2="140" fill="none" stroke="currentColor"
			stroke-linecap="round" stroke-linejoin="round" stroke-width="16"></line>
		<line x1="68" y1="116" x2="140" y2="188" fill="none" stroke="currentColor"
			stroke-linecap="round" stroke-linejoin="round" stroke-width="16"></line>
	</symbol>
	<symbol id="caret-right" xmlns="http://www.w3.org/2000/svg" viewBox="0 0 256 256">
		<polyline points="96 48 176 128 96 208" fill="none" stroke="currentColor"
			stroke-linecap="round" stroke-linejoin="round" stroke-width="16"></polyline>
	</symbol>
	<symbol id="caret-right-bold" xmlns="http://www.w3.org/2000/svg" viewBox="0 0 256 256">
		<polyline points="96 48 176 128 96 208" fill="none" stroke="currentColor"
			stroke-linecap="round" stroke-linejoin="round" stroke-width="24"></polyline>
	</symbol>
	<symbol id="caret-down-bold" xmlns="http://www.w3.org/2000/svg" viewBox="0 0 256 256">
		<polyline points="208 96 128 176 48 96" fill="none" stroke="currentColor"
			stroke-linecap="round" stroke-linejoin="round" stroke-width="24"></polyline>
	</symbol>
	<symbol id="chalkboard-teacher" xmlns="http://www.w3.org/2000/svg" viewBox="0 0 256 256">
		<circle cx="104" cy="144" r="32" fill="none" stroke="currentColor" stroke-linecap="round"
			stroke-linejoin="round" stroke-width="16"></circle>
		<path
			d="M53.4,208a56,56,0,0,1,101.2,0H216a8,8,0,0,0,8-8V56a8,8,0,0,0-8-8H40a8,8,0,0,0-8,8V200a8,8,0,0,0,8,8Z"
			fill="none" stroke="currentColor" stroke-linecap="round" stroke-linejoin="round"
			stroke-width="16"></path>
		<polyline points="176 176 192 176 192 80 64 80 64 96" fill="none" stroke="currentColor"
			stroke-linecap="round" stroke-linejoin="round" stroke-width="16"></polyline>
	</symbol>
	<symbol id="clock" xmlns="http://www.w3.org/2000/svg" viewBox="0 0 256 256">
		<circle cx="128" cy="128" r="96" fill="none" stroke="currentColor" stroke-miterlimit="10"
			stroke-width="16"></circle>
		<polyline points="128 72 128 128 184 128" fill="none" stroke="currentColor"
			stroke-linecap="round" stroke-linejoin="round" stroke-width="16"></polyline>
	</symbol>
	<symbol id="projector-screen" xmlns="http://www.w3.org/2000/svg" viewBox="0 0 256 256">
		<line x1="48" y1="184" x2="48" y2="72" fill="none" stroke="currentColor"
			stroke-linecap="round" stroke-linejoin="round" stroke-width="16"></line>
		<line x1="208" y1="72" x2="208" y2="184" fill="none" stroke="currentColor"
			stroke-linecap="round" stroke-linejoin="round" stroke-width="16"></line>
		<rect x="32" y="40" width="192" height="32" rx="8" fill="none" stroke="currentColor"
			stroke-linecap="round" stroke-linejoin="round" stroke-width="16"></rect>
		<line x1="128" y1="184" x2="128" y2="216" fill="none" stroke="currentColor"
			stroke-linecap="round" stroke-linejoin="round" stroke-width="16"></line>
		<circle cx="128" cy="232" r="16" fill="none" stroke="currentColor" stroke-linecap="round"
			stroke-linejoin="round" stroke-width="16"></circle>
		<line x1="32" y1="184" x2="224" y2="184" fill="none" stroke="currentColor"
			stroke-linecap="round" stroke-linejoin="round" stroke-width="16"></line>
	</symbol>
	<symbol id="chart-bar" xmlns="http://www.w3.org/2000/svg" viewBox="0 0 256 256">
		<polyline points="44 208 44 136 100 136" fill="none" stroke="currentColor"
			stroke-linecap="round" stroke-linejoin="round" stroke-width="16"></polyline>
		<line x1="228" y1="208" x2="28" y2="208" fill="none" stroke="currentColor"
			stroke-linecap="round" stroke-linejoin="round" stroke-width="16"></line>
		<polyline points="100 208 100 88 156 88" fill="none" stroke="currentColor"
			stroke-linecap="round" stroke-linejoin="round" stroke-width="16"></polyline>
		<rect x="156" y="40" width="56" height="168" fill="none" stroke="currentColor"
			stroke-linecap="round" stroke-linejoin="round" stroke-width="16"></rect>
	</symbol>
	<symbol id="graduation-cap" xmlns="http://www.w3.org/2000/svg" viewBox="0 0 256 256">
		<polygon points="8 96 128 32 248 96 128 160 8 96" fill="none" stroke="currentColor"
			stroke-linecap="round" stroke-linejoin="round" stroke-width="16"></polygon>
		<polyline points="188 240 188 128 128 96" fill="none" stroke="currentColor"
			stroke-linecap="round" stroke-linejoin="round" stroke-width="16"></polyline>
		<path
			d="M220,110.9v54.6a7.8,7.8,0,0,1-1.6,4.7c-6.7,9-35.1,41.8-90.4,41.8s-83.7-32.8-90.4-41.8a7.8,7.8,0,0,1-1.6-4.7V110.9"
			fill="none" stroke="currentColor" stroke-linecap="round" stroke-linejoin="round"
			stroke-width="16"></path>
	</symbol>
	<symbol id="check" xmlns="http://www.w3.org/2000/svg" viewBox="0 0 256 256">
		<polyline points="216 72 104 184 48 128" fill="none" stroke="currentColor"
			stroke-linecap="round" stroke-linejoin="round" stroke-width="16"></polyline>
	</symbol>
	<symbol id="book" xmlns="http://www.w3.org/2000/svg" viewBox="0 0 256 256">
		<path d="M48,216a23.9,23.9,0,0,1,24-24H208V32H72A23.9,23.9,0,0,0,48,56Z" fill="none"
			stroke="currentColor" stroke-linecap="round" stroke-linejoin="round" stroke-width="16"></path>
		<polyline points="48 216 48 224 192 224" fill="none" stroke="currentColor"
			stroke-linecap="round" stroke-linejoin="round" stroke-width="16"></polyline>
	</symbol>
	<symbol id="chat-dots" fill="currentColor" xmlns="http://www.w3.org/2000/svg" viewBox="0 0 256 256">
		<path
			d="M77.4,201.9l-32.3,27A8,8,0,0,1,32,222.8V64a8,8,0,0,1,8-8H216a8,8,0,0,1,8,8V192a8,8,0,0,1-8,8H82.5A7.8,7.8,0,0,0,77.4,201.9Z"
			fill="none" stroke="currentColor" stroke-linecap="round" stroke-linejoin="round"
			stroke-width="16"></path>
		<circle cx="128" cy="128" r="12"></circle>
		<circle cx="80" cy="128" r="12"></circle>
		<circle cx="176" cy="128" r="12"></circle>
	</symbol>
	<symbol id="house" xmlns="http://www.w3.org/2000/svg" viewBox="0 0 256 256">
		<path
			d="M152,208V160a8,8,0,0,0-8-8H112a8,8,0,0,0-8,8v48a8,8,0,0,1-8,8H48a8,8,0,0,1-8-8V115.5a8.3,8.3,0,0,1,2.6-5.9l80-72.7a8,8,0,0,1,10.8,0l80,72.7a8.3,8.3,0,0,1,2.6,5.9V208a8,8,0,0,1-8,8H160A8,8,0,0,1,152,208Z"
			fill="none" stroke="currentColor" stroke-linecap="round" stroke-linejoin="round"
			stroke-width="16"></path>
	</symbol>
	<symbol id="house" xmlns="http://www.w3.org/2000/svg" viewBox="0 0 256 256">
		<path
			d="M152,208V160a8,8,0,0,0-8-8H112a8,8,0,0,0-8,8v48a8,8,0,0,1-8,8H48a8,8,0,0,1-8-8V115.5a8.3,8.3,0,0,1,2.6-5.9l80-72.7a8,8,0,0,1,10.8,0l80,72.7a8.3,8.3,0,0,1,2.6,5.9V208a8,8,0,0,1-8,8H160A8,8,0,0,1,152,208Z"
			fill="none" stroke="currentColor" stroke-linecap="round" stroke-linejoin="round"
			stroke-width="16"></path>
	</symbol>
	<symbol id="bars" xmlns="http://www.w3.org/2000/svg" viewBox="0 0 448 512">
		<path fill="currentColor"
			d="M442 114H6a6 6 0 0 1-6-6V84a6 6 0 0 1 6-6h436a6 6 0 0 1 6 6v24a6 6 0 0 1-6 6zm0 160H6a6 6 0 0 1-6-6v-24a6 6 0 0 1 6-6h436a6 6 0 0 1 6 6v24a6 6 0 0 1-6 6zm0 160H6a6 6 0 0 1-6-6v-24a6 6 0 0 1 6-6h436a6 6 0 0 1 6 6v24a6 6 0 0 1-6 6z"
			class=""></path>
	</symbol>
	<symbol id="search" xmlns="http://www.w3.org/2000/svg" viewBox="0 0 256 256">
		<circle cx="116" cy="116" r="84" fill="none" stroke="currentColor" stroke-linecap="round"
			stroke-linejoin="round" stroke-width="24"></circle>
		<line x1="175.4" y1="175.4" x2="224" y2="224" fill="none" stroke="currentColor"
			stroke-linecap="round" stroke-linejoin="round" stroke-width="24"></line>
	</symbol>
	<symbol id="burger" width="16" height="12" viewBox="0 0 16 12">
		<path data-name="Rounded Rectangle 81 copy 4" fill="currentColor" stroke="currentColor" d="M872,958h-8a1,1,0,0,1-1-1h0a1,1,0,0,1,1-1h8a1,1,0,0,1,1,1h0A1,1,0,0,1,872,958Zm6-5H864a1,1,0,0,1,0-2h14A1,1,0,0,1,878,953Zm0-5H864a1,1,0,0,1,0-2h14A1,1,0,0,1,878,948Z" transform="translate(-863 -946)"></path>
	</symbol>
	<symbol id="vk" viewBox="0 0 15 9" version="1.1" xmlns="http://www.w3.org/2000/svg" xmlns:xlink="http://www.w3.org/1999/xlink" xml:space="preserve" xmlns:serif="http://www.serif.com/" style="fill-rule:evenodd;clip-rule:evenodd;stroke-linejoin:round;stroke-miterlimit:2;">
		<g transform="matrix(1,0,0,1,-14.8821,-581)">
			<path fill="currentColor" d="M22.738,590C17.81,590 14.999,586.622 14.882,581L17.351,581C17.432,585.126 19.251,586.874 20.693,587.234L20.693,581L23.017,581L23.017,584.559C24.441,584.405 25.936,582.784 26.441,581L28.765,581C28.378,583.198 26.756,584.82 25.603,585.486C26.756,586.027 28.603,587.441 29.305,590L26.747,590C26.197,588.288 24.828,586.964 23.017,586.784L23.017,590L22.738,590Z" style="fill-rule:nonzero;"/>
		</g>
	</symbol>	
	<symbol id="whatsapp" viewBox="0 0 15 15" version="1.1" xmlns="http://www.w3.org/2000/svg" style="fill-rule:evenodd;clip-rule:evenodd;stroke-linejoin:round;stroke-miterlimit:2;">
		<path fill="currentColor" stroke="none"  d="M7.5,14.972C6.086,14.968 4.702,14.563 3.51,13.802L0,14.972L1.17,11.461C0.289,10.054 -0.1,8.394 0.064,6.743C0.229,5.091 0.939,3.54 2.081,2.336C3.223,1.131 4.733,0.34 6.374,0.087C8.015,-0.165 9.693,0.134 11.145,0.94C12.596,1.745 13.739,3.01 14.393,4.535C15.048,6.061 15.176,7.761 14.759,9.368C14.342,10.975 13.402,12.397 12.088,13.412C10.774,14.426 9.16,14.975 7.5,14.972ZM9.13,8.608C9.629,8.769 10.136,8.903 10.65,9.008C10.704,9.016 10.756,9.035 10.802,9.063C10.849,9.092 10.89,9.129 10.921,9.174C10.953,9.218 10.975,9.269 10.987,9.322C10.999,9.375 11,9.43 10.99,9.484L10.99,9.772C10.995,9.875 10.976,9.977 10.934,10.071C10.893,10.166 10.829,10.249 10.75,10.314C10.504,10.564 10.212,10.765 9.89,10.906C9.415,10.962 8.934,10.921 8.477,10.783C8.019,10.645 7.595,10.415 7.23,10.106C6.76,9.791 6.321,9.431 5.92,9.031C5.521,8.628 5.159,8.189 4.84,7.72C4.534,7.355 4.305,6.931 4.17,6.474C4.034,6.018 3.993,5.538 4.05,5.065C4.191,4.745 4.391,4.455 4.64,4.209C4.703,4.128 4.786,4.064 4.88,4.023C4.974,3.982 5.078,3.964 5.18,3.973L5.47,3.973C5.579,3.958 5.69,3.987 5.778,4.053C5.867,4.12 5.925,4.219 5.94,4.328C6.09,4.92 6.2,5.348 6.35,5.828C6.41,6.028 6.34,6.076 6.18,6.196C6.08,6.273 6,6.329 5.92,6.388C5.874,6.408 5.832,6.438 5.798,6.475C5.764,6.513 5.738,6.557 5.722,6.605C5.706,6.653 5.7,6.703 5.705,6.754C5.71,6.804 5.725,6.853 5.75,6.897C6.005,7.388 6.332,7.839 6.72,8.235C7.115,8.623 7.567,8.949 8.06,9.202C8.104,9.226 8.153,9.242 8.203,9.246C8.253,9.251 8.304,9.245 8.352,9.229C8.4,9.213 8.444,9.188 8.482,9.154C8.519,9.12 8.549,9.079 8.57,9.033C8.63,8.952 8.68,8.876 8.76,8.772C8.772,8.736 8.792,8.703 8.818,8.675C8.843,8.647 8.874,8.624 8.909,8.608C8.943,8.592 8.981,8.583 9.019,8.582C9.057,8.581 9.095,8.587 9.13,8.601L9.13,8.608Z"/>
	</symbol>
	<symbol id="whatsapp" viewBox="0 0 15 15" version="1.1" xmlns="http://www.w3.org/2000/svg" style="fill-rule:evenodd;clip-rule:evenodd;stroke-linejoin:round;stroke-miterlimit:2;">
		<path fill="currentColor" stroke="none"  d="M7.5,14.972C6.086,14.968 4.702,14.563 3.51,13.802L0,14.972L1.17,11.461C0.289,10.054 -0.1,8.394 0.064,6.743C0.229,5.091 0.939,3.54 2.081,2.336C3.223,1.131 4.733,0.34 6.374,0.087C8.015,-0.165 9.693,0.134 11.145,0.94C12.596,1.745 13.739,3.01 14.393,4.535C15.048,6.061 15.176,7.761 14.759,9.368C14.342,10.975 13.402,12.397 12.088,13.412C10.774,14.426 9.16,14.975 7.5,14.972ZM9.13,8.608C9.629,8.769 10.136,8.903 10.65,9.008C10.704,9.016 10.756,9.035 10.802,9.063C10.849,9.092 10.89,9.129 10.921,9.174C10.953,9.218 10.975,9.269 10.987,9.322C10.999,9.375 11,9.43 10.99,9.484L10.99,9.772C10.995,9.875 10.976,9.977 10.934,10.071C10.893,10.166 10.829,10.249 10.75,10.314C10.504,10.564 10.212,10.765 9.89,10.906C9.415,10.962 8.934,10.921 8.477,10.783C8.019,10.645 7.595,10.415 7.23,10.106C6.76,9.791 6.321,9.431 5.92,9.031C5.521,8.628 5.159,8.189 4.84,7.72C4.534,7.355 4.305,6.931 4.17,6.474C4.034,6.018 3.993,5.538 4.05,5.065C4.191,4.745 4.391,4.455 4.64,4.209C4.703,4.128 4.786,4.064 4.88,4.023C4.974,3.982 5.078,3.964 5.18,3.973L5.47,3.973C5.579,3.958 5.69,3.987 5.778,4.053C5.867,4.12 5.925,4.219 5.94,4.328C6.09,4.92 6.2,5.348 6.35,5.828C6.41,6.028 6.34,6.076 6.18,6.196C6.08,6.273 6,6.329 5.92,6.388C5.874,6.408 5.832,6.438 5.798,6.475C5.764,6.513 5.738,6.557 5.722,6.605C5.706,6.653 5.7,6.703 5.705,6.754C5.71,6.804 5.725,6.853 5.75,6.897C6.005,7.388 6.332,7.839 6.72,8.235C7.115,8.623 7.567,8.949 8.06,9.202C8.104,9.226 8.153,9.242 8.203,9.246C8.253,9.251 8.304,9.245 8.352,9.229C8.4,9.213 8.444,9.188 8.482,9.154C8.519,9.12 8.549,9.079 8.57,9.033C8.63,8.952 8.68,8.876 8.76,8.772C8.772,8.736 8.792,8.703 8.818,8.675C8.843,8.647 8.874,8.624 8.909,8.608C8.943,8.592 8.981,8.583 9.019,8.582C9.057,8.581 9.095,8.587 9.13,8.601L9.13,8.608Z"/>
	</symbol>
	<symbol id="document" xmlns="http://www.w3.org/2000/svg" viewBox="1751.9 336.9 33.2 41.2">
		<path d="M1784,378h-32V338a1,1,0,0,1,1-1h25v8a2,2,0,0,0,2,2h5v30A1,1,0,0,1,1784,378Zm-25-6h10a1,1,0,0,0,0-2h-10A1,1,0,0,0,1759,372Zm12-26h-12a1,1,0,0,0,0,2h12A1,1,0,0,0,1771,346Zm10,12h-22a1,1,0,0,0,0,2h22A1,1,0,0,0,1781,358Zm0,4h-22a1,1,0,0,0,0,2h22A1,1,0,0,0,1781,362Zm0,4h-22a1,1,0,0,0,0,2h22A1,1,0,0,0,1781,366Z" stroke="#FF0000" stroke-width="0.1" fill="#ffffffb5"/>
	</symbol>
	<symbol id="star-fill" xmlns="http://www.w3.org/2000/svg" viewBox="0 0 256 256">
		<path fill="currentColor" stroke="currentColor" d="M239.2,97.4A16.4,16.4,0,0,0,224.6,86l-59.4-4.1-22-55.5A16.4,16.4,0,0,0,128,16h0a16.4,16.4,0,0,0-15.2,10.4L90.4,82.2,31.4,86A16.5,16.5,0,0,0,16.8,97.4,16.8,16.8,0,0,0,22,115.5l45.4,38.4L53.9,207a18.5,18.5,0,0,0,7,19.6,18,18,0,0,0,20.1.6l46.9-29.7h.2l50.5,31.9a16.1,16.1,0,0,0,8.7,2.6,16.5,16.5,0,0,0,15.8-20.8l-14.3-58.1L234,115.5A16.8,16.8,0,0,0,239.2,97.4Z"></path>
	</symbol>
	<symbol id="star" xmlns="http://www.w3.org/2000/svg"  viewBox="0 0 256 256">
		<path d="M132.4,190.7l50.4,32c6.5,4.1,14.5-2,12.6-9.5l-14.6-57.4a8.7,8.7,0,0,1,2.9-8.8l45.2-37.7c5.9-4.9,2.9-14.8-4.8-15.3l-59-3.8a8.3,8.3,0,0,1-7.3-5.4l-22-55.4a8.3,8.3,0,0,0-15.6,0l-22,55.4a8.3,8.3,0,0,1-7.3,5.4L31.9,94c-7.7.5-10.7,10.4-4.8,15.3L72.3,147a8.7,8.7,0,0,1,2.9,8.8L61.7,209c-2.3,9,7.3,16.3,15,11.4l46.9-29.7A8.2,8.2,0,0,1,132.4,190.7Z" fill="none" stroke="currentColor" stroke-linecap="round" stroke-linejoin="round" stroke-width="16"></path>
	</symbol>
</svg>