<?xml version="1.0" encoding="UTF-8" standalone="no"?>
<!DOCTYPE svg PUBLIC "-//W3C//DTD SVG 1.1//EN" "http://www.w3.org/Graphics/SVG/1.1/DTD/svg11.dtd">
<svg width="100%" height="100%" viewBox="0 0 100 100" version="1.1" xmlns="http://www.w3.org/2000/svg" xmlns:xlink="http://www.w3.org/1999/xlink" xml:space="preserve" xmlns:serif="http://www.serif.com/" style="fill-rule:evenodd;clip-rule:evenodd;stroke-linejoin:round;stroke-miterlimit:2;">
    <path d="M98.882,59.688C98.607,52.476 96.334,45.479 92.31,39.482L69.198,4.795C67.199,1.803 63.835,0 60.236,0C56.63,0 53.265,1.803 51.266,4.795L28.827,38.471L28.827,38.477C30.016,39.313 31.041,40.365 31.851,41.574L32.831,43.063L33.034,42.737L56.146,8.049L56.152,8.049C57.06,6.69 58.589,5.867 60.222,5.867C61.862,5.867 63.39,6.69 64.298,8.049L87.41,42.737C94.217,52.954 94.89,65.574 89.213,76.509C83.66,87.236 73.169,93.821 61.188,94.121C60.535,94.134 59.901,94.134 59.261,94.121L59.254,94.121C54.616,94.01 50.05,92.912 45.863,90.887C44.863,92.618 43.681,94.232 42.335,95.708C47.535,98.4 53.283,99.869 59.137,100L61.358,100C75.514,99.641 87.893,91.873 94.458,79.22C97.588,73.196 99.11,66.468 98.881,59.687L98.882,59.688ZM40.39,64.397L27.233,44.648C26.077,42.93 24.144,41.905 22.079,41.905C20.008,41.905 18.075,42.93 16.925,44.648L3.769,64.397C-5.808,78.769 3.912,98.327 21.158,98.961C21.458,98.961 21.772,98.974 22.072,98.974C22.379,98.974 22.686,98.974 22.993,98.961C40.245,98.34 49.96,78.769 40.389,64.397L40.39,64.397ZM78.67,66.22C78.663,73.36 72.882,79.141 65.742,79.148L65.742,84.7C75.946,84.687 84.209,76.424 84.223,66.219L78.67,66.22ZM8.629,19.152C12.993,21.072 15.24,23.307 17.154,27.677L17.154,27.684C17.448,28.356 18.114,28.794 18.859,28.794C19.597,28.794 20.264,28.356 20.558,27.684C22.478,23.32 24.712,21.073 29.083,19.158L29.083,19.152C29.762,18.858 30.2,18.192 30.2,17.453C30.2,16.715 29.762,16.049 29.083,15.755C24.719,13.835 22.472,11.6 20.558,7.237L20.558,7.23C20.264,6.551 19.597,6.113 18.859,6.113C18.114,6.113 17.448,6.551 17.154,7.23C15.234,11.594 12.999,13.834 8.629,15.749L8.629,15.755C7.95,16.049 7.512,16.715 7.512,17.453C7.512,18.192 7.95,18.858 8.629,19.152L8.629,19.152Z" style="fill:url(#_Linear1);fill-rule:nonzero;"/>
    <defs>
        <linearGradient id="_Linear1" x1="0" y1="0" x2="1" y2="0" gradientUnits="userSpaceOnUse" gradientTransform="matrix(100,100,-101.109,101.109,7.60503e-15,0)"><stop offset="0" style="stop-color:rgb(0,179,73);stop-opacity:1"/><stop offset="1" style="stop-color:rgb(0,120,122);stop-opacity:1"/></linearGradient>
    </defs>
</svg>
