<?xml version="1.0" standalone="no"?>
<!DOCTYPE svg PUBLIC "-//W3C//DTD SVG 20010904//EN"
 "http://www.w3.org/TR/2001/REC-SVG-20010904/DTD/svg10.dtd">
<svg version="1.0" xmlns="http://www.w3.org/2000/svg"
 width="700.000000pt" height="700.000000pt" viewBox="0 0 700.000000 700.000000"
 preserveAspectRatio="xMidYMid meet">
<metadata>
Created by potrace 1.14, written by Peter Selinger 2001-2017
</metadata>
<g transform="translate(0.000000,700.000000) scale(0.100000,-0.100000)"
fill="#000000" stroke="none">
<path d="M4119 6996 c-2 -2 -22 -7 -43 -10 -72 -12 -91 -18 -194 -68 -152 -74
-228 -152 -407 -423 -77 -115 -144 -217 -150 -227 -5 -9 -41 -63 -80 -120 -38
-56 -74 -110 -80 -119 -20 -33 -154 -235 -172 -259 -9 -13 -81 -121 -160 -240
-78 -118 -149 -225 -157 -236 -8 -12 -160 -239 -337 -504 l-321 -483 34 -26
c62 -48 134 -128 189 -210 30 -44 56 -81 59 -80 3 0 165 242 360 537 195 295
359 541 363 547 5 5 210 313 456 684 247 370 465 693 485 716 45 54 140 103
217 111 104 11 219 -33 286 -109 24 -28 1568 -2338 1698 -2542 127 -199 268
-551 301 -753 3 -19 14 -81 23 -139 26 -149 26 -464 1 -628 -24 -154 -24 -154
-50 -255 -106 -417 -311 -781 -610 -1081 -199 -199 -378 -328 -611 -442 -181
-87 -428 -167 -594 -192 -22 -3 -53 -8 -70 -10 -16 -3 -46 -7 -65 -10 -19 -3
-123 -7 -230 -9 -175 -4 -241 0 -390 19 -181 24 -478 113 -620 185 l-39 20
-28 -48 c-31 -52 -158 -224 -192 -260 -12 -12 -19 -27 -16 -32 13 -22 239
-117 396 -168 179 -58 329 -91 535 -116 107 -14 536 -15 614 -2 19 3 55 8 80
11 88 12 116 17 230 42 382 84 758 266 1075 520 494 395 854 1001 969 1628 18
95 26 146 31 200 3 33 8 80 11 105 7 61 6 329 0 410 -6 66 -23 204 -32 250 -2
14 -7 41 -10 60 -3 19 -8 38 -10 42 -3 4 -7 22 -9 40 -7 50 -70 261 -111 368
-54 141 -148 331 -222 450 -36 58 -438 663 -893 1345 -884 1327 -876 1315
-1017 1401 -63 39 -177 86 -240 100 -33 7 -247 15 -253 10z"/>
<path d="M1270 6563 c-31 -12 -54 -41 -97 -128 -70 -138 -128 -223 -212 -305
-88 -88 -150 -130 -287 -198 -54 -28 -107 -59 -117 -70 -41 -45 -38 -123 5
-169 12 -13 56 -40 95 -58 237 -110 397 -270 524 -526 47 -96 77 -122 139
-122 63 0 94 27 141 122 124 255 272 403 529 530 90 44 118 73 121 127 6 75
-18 101 -146 166 -242 122 -372 251 -495 497 -37 74 -60 107 -83 121 -31 19
-85 25 -117 13z"/>
<path d="M1509 4066 c-2 -2 -24 -7 -49 -10 -59 -8 -155 -55 -207 -103 -53 -49
-1013 -1488 -1083 -1624 -51 -99 -125 -307 -136 -377 -3 -21 -7 -44 -10 -52
-12 -34 -19 -144 -19 -280 1 -147 7 -214 26 -298 6 -26 13 -58 15 -72 23 -118
140 -379 228 -508 253 -369 650 -611 1084 -659 122 -14 373 -8 470 12 345 69
634 230 853 476 210 235 327 481 394 829 4 19 8 112 10 205 2 162 -5 233 -40
398 -17 83 -84 252 -147 372 -32 62 -977 1483 -1025 1542 -66 80 -184 139
-296 147 -36 3 -66 4 -68 2z"/>
<path d="M5512 2360 c-4 -3 -7 -21 -8 -40 -5 -166 -75 -359 -179 -498 -160
-213 -429 -354 -686 -361 l-37 -1 0 -196 0 -195 86 6 c316 22 600 153 828 380
209 208 343 485 369 760 3 39 8 84 10 100 2 17 1 35 -3 40 -7 11 -367 15 -380
5z"/>
</g>
</svg>
